<mxfile host="app.diagrams.net" modified="2020-04-02T22:15:56.752Z" agent="5.0 (X11)" etag="Uejj7bwM7ElsjcydbFCi" version="12.9.6" type="github">
  <diagram id="LazKnGvbX23ycXQoRlN8" name="Page-1">
    <mxGraphModel dx="1138" dy="614" grid="1" gridSize="10" guides="1" tooltips="1" connect="1" arrows="1" fold="1" page="1" pageScale="1" pageWidth="850" pageHeight="1100" math="0" shadow="0">
      <root>
        <mxCell id="0" />
        <mxCell id="1" parent="0" />
        <mxCell id="QCGNxjPxJidO-nlAyb78-2" value="&lt;div align=&quot;center&quot;&gt;&amp;lt; activity &amp;gt; Выбор тура клиентом&lt;br&gt;&lt;/div&gt;" style="rounded=0;whiteSpace=wrap;html=1;align=center;" parent="1" vertex="1">
          <mxGeometry x="40" y="40" width="350" height="30" as="geometry" />
        </mxCell>
        <mxCell id="QCGNxjPxJidO-nlAyb78-3" value="" style="ellipse;html=1;shape=endState;fillColor=#000000;strokeColor=#FFFFFF;" parent="1" vertex="1">
          <mxGeometry x="385" y="110" width="30" height="30" as="geometry" />
        </mxCell>
        <mxCell id="QCGNxjPxJidO-nlAyb78-4" value="" style="ellipse;html=1;shape=endState;fillColor=#000000;strokeColor=#000000;" parent="1" vertex="1">
          <mxGeometry x="65" y="220" width="30" height="30" as="geometry" />
        </mxCell>
        <mxCell id="QCGNxjPxJidO-nlAyb78-11" value="" style="endArrow=none;html=1;strokeWidth=4;" parent="1" edge="1">
          <mxGeometry width="50" height="50" relative="1" as="geometry">
            <mxPoint x="10" y="130" as="sourcePoint" />
            <mxPoint x="130" y="130" as="targetPoint" />
          </mxGeometry>
        </mxCell>
        <mxCell id="QCGNxjPxJidO-nlAyb78-8" value="" style="endArrow=open;endFill=1;endSize=12;html=1;" parent="1" edge="1">
          <mxGeometry width="160" relative="1" as="geometry">
            <mxPoint x="399.6" y="280" as="sourcePoint" />
            <mxPoint x="400" y="360" as="targetPoint" />
          </mxGeometry>
        </mxCell>
        <mxCell id="QCGNxjPxJidO-nlAyb78-16" value="Клиент изучает ассортимент туров на сайте" style="shape=ext;rounded=1;html=1;whiteSpace=wrap;" parent="1" vertex="1">
          <mxGeometry x="340" y="200" width="120" height="80" as="geometry" />
        </mxCell>
        <mxCell id="QCGNxjPxJidO-nlAyb78-21" value="" style="endArrow=open;endFill=1;endSize=12;html=1;entryX=0.5;entryY=0;entryDx=0;entryDy=0;" parent="1" target="QCGNxjPxJidO-nlAyb78-16" edge="1">
          <mxGeometry width="160" relative="1" as="geometry">
            <mxPoint x="399.83" y="130" as="sourcePoint" />
            <mxPoint x="401" y="198" as="targetPoint" />
          </mxGeometry>
        </mxCell>
        <mxCell id="QCGNxjPxJidO-nlAyb78-23" value="" style="rhombus;whiteSpace=wrap;html=1;" parent="1" vertex="1">
          <mxGeometry x="380" y="404" width="40" height="30" as="geometry" />
        </mxCell>
        <mxCell id="QCGNxjPxJidO-nlAyb78-24" value="" style="rhombus;whiteSpace=wrap;html=1;" parent="1" vertex="1">
          <mxGeometry x="25" y="260" width="40" height="30" as="geometry" />
        </mxCell>
        <mxCell id="QCGNxjPxJidO-nlAyb78-25" value="" style="endArrow=open;endFill=1;endSize=12;html=1;exitX=1;exitY=0.5;exitDx=0;exitDy=0;" parent="1" source="QCGNxjPxJidO-nlAyb78-23" edge="1">
          <mxGeometry width="160" relative="1" as="geometry">
            <mxPoint x="469.9999999999999" y="414" as="sourcePoint" />
            <mxPoint x="480" y="444" as="targetPoint" />
            <Array as="points">
              <mxPoint x="480" y="424" />
            </Array>
          </mxGeometry>
        </mxCell>
        <mxCell id="QCGNxjPxJidO-nlAyb78-26" value="" style="endArrow=open;endFill=1;endSize=12;html=1;exitX=0;exitY=0.5;exitDx=0;exitDy=0;" parent="1" source="QCGNxjPxJidO-nlAyb78-23" edge="1">
          <mxGeometry width="160" relative="1" as="geometry">
            <mxPoint x="370" y="429" as="sourcePoint" />
            <mxPoint x="320" y="444" as="targetPoint" />
            <Array as="points">
              <mxPoint x="320" y="424" />
            </Array>
          </mxGeometry>
        </mxCell>
        <mxCell id="QCGNxjPxJidO-nlAyb78-27" value="Выбор места с холодным климатом" style="shape=ext;rounded=1;html=1;whiteSpace=wrap;" parent="1" vertex="1">
          <mxGeometry x="425" y="444" width="120" height="80" as="geometry" />
        </mxCell>
        <mxCell id="QCGNxjPxJidO-nlAyb78-28" value="Выбор места с жарким климатом" style="shape=ext;rounded=1;html=1;whiteSpace=wrap;" parent="1" vertex="1">
          <mxGeometry x="260" y="444" width="120" height="80" as="geometry" />
        </mxCell>
        <mxCell id="QCGNxjPxJidO-nlAyb78-29" value="[место с жарким климатом]" style="text;html=1;align=center;verticalAlign=middle;resizable=0;points=[];autosize=1;" parent="1" vertex="1">
          <mxGeometry x="210" y="400" width="170" height="20" as="geometry" />
        </mxCell>
        <mxCell id="QCGNxjPxJidO-nlAyb78-30" value="[место с холодным климатом]" style="text;html=1;align=center;verticalAlign=middle;resizable=0;points=[];autosize=1;" parent="1" vertex="1">
          <mxGeometry x="420" y="400" width="180" height="20" as="geometry" />
        </mxCell>
        <mxCell id="QCGNxjPxJidO-nlAyb78-31" value="" style="endArrow=none;html=1;strokeWidth=4;" parent="1" edge="1">
          <mxGeometry width="50" height="50" relative="1" as="geometry">
            <mxPoint x="340" y="564" as="sourcePoint" />
            <mxPoint x="460" y="564" as="targetPoint" />
          </mxGeometry>
        </mxCell>
        <mxCell id="QCGNxjPxJidO-nlAyb78-32" value="" style="endArrow=open;endFill=1;endSize=12;html=1;exitX=0.5;exitY=1;exitDx=0;exitDy=0;" parent="1" source="QCGNxjPxJidO-nlAyb78-28" edge="1">
          <mxGeometry width="160" relative="1" as="geometry">
            <mxPoint x="309.5999999999999" y="524" as="sourcePoint" />
            <mxPoint x="390" y="564" as="targetPoint" />
            <Array as="points">
              <mxPoint x="370" y="544" />
            </Array>
          </mxGeometry>
        </mxCell>
        <mxCell id="QCGNxjPxJidO-nlAyb78-34" value="" style="endArrow=open;endFill=1;endSize=12;html=1;" parent="1" edge="1">
          <mxGeometry width="160" relative="1" as="geometry">
            <mxPoint x="479.9999999999999" y="524" as="sourcePoint" />
            <mxPoint x="410" y="564" as="targetPoint" />
            <Array as="points">
              <mxPoint x="430" y="544" />
            </Array>
          </mxGeometry>
        </mxCell>
        <mxCell id="QCGNxjPxJidO-nlAyb78-35" value="" style="endArrow=open;endFill=1;endSize=12;html=1;" parent="1" edge="1">
          <mxGeometry width="160" relative="1" as="geometry">
            <mxPoint x="399.5999999999999" y="564" as="sourcePoint" />
            <mxPoint x="399.5999999999999" y="604" as="targetPoint" />
          </mxGeometry>
        </mxCell>
        <mxCell id="QCGNxjPxJidO-nlAyb78-37" value="" style="rhombus;whiteSpace=wrap;html=1;" parent="1" vertex="1">
          <mxGeometry x="380" y="604" width="40" height="30" as="geometry" />
        </mxCell>
        <mxCell id="QCGNxjPxJidO-nlAyb78-38" value="" style="endArrow=open;endFill=1;endSize=12;html=1;exitX=0;exitY=0.5;exitDx=0;exitDy=0;entryX=0.5;entryY=0;entryDx=0;entryDy=0;" parent="1" source="QCGNxjPxJidO-nlAyb78-37" target="QCGNxjPxJidO-nlAyb78-44" edge="1">
          <mxGeometry width="160" relative="1" as="geometry">
            <mxPoint x="380" y="624" as="sourcePoint" />
            <mxPoint x="320" y="649" as="targetPoint" />
            <Array as="points">
              <mxPoint x="260" y="619" />
            </Array>
          </mxGeometry>
        </mxCell>
        <mxCell id="QCGNxjPxJidO-nlAyb78-39" value="" style="endArrow=open;endFill=1;endSize=12;html=1;exitX=1;exitY=0.5;exitDx=0;exitDy=0;" parent="1" source="QCGNxjPxJidO-nlAyb78-37" edge="1">
          <mxGeometry width="160" relative="1" as="geometry">
            <mxPoint x="425" y="622" as="sourcePoint" />
            <mxPoint x="670" y="654" as="targetPoint" />
            <Array as="points">
              <mxPoint x="650" y="624" />
            </Array>
          </mxGeometry>
        </mxCell>
        <mxCell id="QCGNxjPxJidO-nlAyb78-40" value="[выбранное место требует наличия визы]" style="text;html=1;align=center;verticalAlign=middle;resizable=0;points=[];autosize=1;" parent="1" vertex="1">
          <mxGeometry x="150" y="594" width="250" height="20" as="geometry" />
        </mxCell>
        <mxCell id="QCGNxjPxJidO-nlAyb78-44" value="" style="rhombus;whiteSpace=wrap;html=1;" parent="1" vertex="1">
          <mxGeometry x="240" y="679" width="40" height="30" as="geometry" />
        </mxCell>
        <mxCell id="QCGNxjPxJidO-nlAyb78-45" value="" style="endArrow=open;endFill=1;endSize=12;html=1;exitX=0;exitY=0.5;exitDx=0;exitDy=0;" parent="1" source="QCGNxjPxJidO-nlAyb78-44" edge="1">
          <mxGeometry width="160" relative="1" as="geometry">
            <mxPoint x="300" y="674" as="sourcePoint" />
            <mxPoint x="370" y="360" as="targetPoint" />
            <Array as="points">
              <mxPoint x="70" y="694" />
              <mxPoint x="70" y="320" />
              <mxPoint x="360" y="320" />
            </Array>
          </mxGeometry>
        </mxCell>
        <mxCell id="QCGNxjPxJidO-nlAyb78-46" value="" style="endArrow=open;endFill=1;endSize=12;html=1;exitX=1;exitY=0.5;exitDx=0;exitDy=0;entryX=0.5;entryY=0;entryDx=0;entryDy=0;" parent="1" source="QCGNxjPxJidO-nlAyb78-44" target="QCGNxjPxJidO-nlAyb78-55" edge="1">
          <mxGeometry width="160" relative="1" as="geometry">
            <mxPoint x="285" y="707" as="sourcePoint" />
            <mxPoint x="340" y="732" as="targetPoint" />
            <Array as="points">
              <mxPoint x="340" y="694" />
              <mxPoint x="390" y="694" />
            </Array>
          </mxGeometry>
        </mxCell>
        <mxCell id="QCGNxjPxJidO-nlAyb78-47" value="[клиент не готов делать визу]" style="text;html=1;align=center;verticalAlign=middle;resizable=0;points=[];autosize=1;" parent="1" vertex="1">
          <mxGeometry x="65" y="669" width="180" height="20" as="geometry" />
        </mxCell>
        <mxCell id="QCGNxjPxJidO-nlAyb78-48" value="[клиент готов делать визу]" style="text;html=1;align=center;verticalAlign=middle;resizable=0;points=[];autosize=1;" parent="1" vertex="1">
          <mxGeometry x="280" y="669" width="160" height="20" as="geometry" />
        </mxCell>
        <mxCell id="QCGNxjPxJidO-nlAyb78-49" value="[выбранное место не требует наличия визы]" style="text;html=1;align=center;verticalAlign=middle;resizable=0;points=[];autosize=1;" parent="1" vertex="1">
          <mxGeometry x="415" y="594" width="260" height="20" as="geometry" />
        </mxCell>
        <mxCell id="QCGNxjPxJidO-nlAyb78-53" value="Выбор экскурсий" style="shape=ext;rounded=1;html=1;whiteSpace=wrap;" parent="1" vertex="1">
          <mxGeometry x="245" y="1220" width="120" height="80" as="geometry" />
        </mxCell>
        <mxCell id="QCGNxjPxJidO-nlAyb78-55" value="Получение визы" style="shape=ext;rounded=1;html=1;whiteSpace=wrap;" parent="1" vertex="1">
          <mxGeometry x="330" y="720" width="120" height="80" as="geometry" />
        </mxCell>
        <mxCell id="QCGNxjPxJidO-nlAyb78-57" value="" style="endArrow=open;endFill=1;endSize=12;html=1;exitX=0.567;exitY=1.015;exitDx=0;exitDy=0;exitPerimeter=0;" parent="1" source="QCGNxjPxJidO-nlAyb78-55" edge="1">
          <mxGeometry width="160" relative="1" as="geometry">
            <mxPoint x="380" y="860" as="sourcePoint" />
            <mxPoint x="630.25" y="654" as="targetPoint" />
            <Array as="points">
              <mxPoint x="400" y="830" />
              <mxPoint x="530" y="830" />
              <mxPoint x="550" y="634" />
              <mxPoint x="610" y="634" />
            </Array>
          </mxGeometry>
        </mxCell>
        <mxCell id="QCGNxjPxJidO-nlAyb78-58" value="" style="endArrow=none;html=1;strokeWidth=4;" parent="1" edge="1">
          <mxGeometry width="50" height="50" relative="1" as="geometry">
            <mxPoint x="590" y="654" as="sourcePoint" />
            <mxPoint x="710" y="654" as="targetPoint" />
          </mxGeometry>
        </mxCell>
        <mxCell id="QCGNxjPxJidO-nlAyb78-59" value="" style="endArrow=open;endFill=1;endSize=12;html=1;entryX=0.5;entryY=0;entryDx=0;entryDy=0;" parent="1" edge="1" target="f9FGhz5ylGD2EKOBcmWQ-1">
          <mxGeometry width="160" relative="1" as="geometry">
            <mxPoint x="649.7499999999999" y="654" as="sourcePoint" />
            <mxPoint x="649.7499999999999" y="694" as="targetPoint" />
          </mxGeometry>
        </mxCell>
        <mxCell id="QCGNxjPxJidO-nlAyb78-60" value="" style="endArrow=none;html=1;strokeWidth=4;" parent="1" edge="1">
          <mxGeometry width="50" height="50" relative="1" as="geometry">
            <mxPoint x="340" y="364" as="sourcePoint" />
            <mxPoint x="460" y="364" as="targetPoint" />
          </mxGeometry>
        </mxCell>
        <mxCell id="QCGNxjPxJidO-nlAyb78-61" value="" style="endArrow=open;endFill=1;endSize=12;html=1;" parent="1" edge="1">
          <mxGeometry width="160" relative="1" as="geometry">
            <mxPoint x="399.5999999999999" y="364" as="sourcePoint" />
            <mxPoint x="399.5999999999999" y="404" as="targetPoint" />
          </mxGeometry>
        </mxCell>
        <mxCell id="QCGNxjPxJidO-nlAyb78-62" value="" style="ellipse;html=1;shape=endState;fillColor=#000000;strokeColor=#000000;rotation=45;" parent="1" vertex="1">
          <mxGeometry x="290" y="1450" width="30" height="30" as="geometry" />
        </mxCell>
        <mxCell id="QCGNxjPxJidO-nlAyb78-64" value="" style="endArrow=open;endFill=1;endSize=12;html=1;" parent="1" edge="1">
          <mxGeometry width="160" relative="1" as="geometry">
            <mxPoint x="304.6" y="1300" as="sourcePoint" />
            <mxPoint x="304.85" y="1335" as="targetPoint" />
          </mxGeometry>
        </mxCell>
        <mxCell id="f9FGhz5ylGD2EKOBcmWQ-1" value="Выбор дат" style="shape=ext;rounded=1;html=1;whiteSpace=wrap;" vertex="1" parent="1">
          <mxGeometry x="590" y="690" width="120" height="80" as="geometry" />
        </mxCell>
        <mxCell id="f9FGhz5ylGD2EKOBcmWQ-2" value="Выбор категории отеля" style="shape=ext;rounded=1;html=1;whiteSpace=wrap;" vertex="1" parent="1">
          <mxGeometry x="600" y="800" width="120" height="80" as="geometry" />
        </mxCell>
        <mxCell id="f9FGhz5ylGD2EKOBcmWQ-3" value="" style="endArrow=open;endFill=1;endSize=12;html=1;" edge="1" parent="1">
          <mxGeometry width="160" relative="1" as="geometry">
            <mxPoint x="649.4999999999999" y="770" as="sourcePoint" />
            <mxPoint x="650" y="800" as="targetPoint" />
          </mxGeometry>
        </mxCell>
        <mxCell id="f9FGhz5ylGD2EKOBcmWQ-4" value="Выбор отеля" style="shape=ext;rounded=1;html=1;whiteSpace=wrap;" vertex="1" parent="1">
          <mxGeometry x="600" y="950" width="120" height="80" as="geometry" />
        </mxCell>
        <mxCell id="f9FGhz5ylGD2EKOBcmWQ-7" value="" style="endArrow=open;endFill=1;endSize=12;html=1;" edge="1" parent="1">
          <mxGeometry width="160" relative="1" as="geometry">
            <mxPoint x="659.5" y="920" as="sourcePoint" />
            <mxPoint x="660" y="950" as="targetPoint" />
          </mxGeometry>
        </mxCell>
        <mxCell id="f9FGhz5ylGD2EKOBcmWQ-8" value="Покупка тура" style="shape=ext;rounded=1;html=1;whiteSpace=wrap;" vertex="1" parent="1">
          <mxGeometry x="245" y="1335" width="120" height="80" as="geometry" />
        </mxCell>
        <mxCell id="f9FGhz5ylGD2EKOBcmWQ-9" value="" style="rhombus;whiteSpace=wrap;html=1;" vertex="1" parent="1">
          <mxGeometry x="640" y="1170" width="40" height="30" as="geometry" />
        </mxCell>
        <mxCell id="f9FGhz5ylGD2EKOBcmWQ-10" value="" style="endArrow=open;endFill=1;endSize=12;html=1;" edge="1" parent="1">
          <mxGeometry width="160" relative="1" as="geometry">
            <mxPoint x="659.5" y="1140" as="sourcePoint" />
            <mxPoint x="660" y="1170" as="targetPoint" />
          </mxGeometry>
        </mxCell>
        <mxCell id="f9FGhz5ylGD2EKOBcmWQ-11" value="" style="endArrow=open;endFill=1;endSize=12;html=1;exitX=1;exitY=0.5;exitDx=0;exitDy=0;" edge="1" parent="1" source="f9FGhz5ylGD2EKOBcmWQ-9">
          <mxGeometry width="160" relative="1" as="geometry">
            <mxPoint x="700" y="1050" as="sourcePoint" />
            <mxPoint x="680" y="920" as="targetPoint" />
            <Array as="points">
              <mxPoint x="1020" y="1185" />
              <mxPoint x="1020" y="900" />
              <mxPoint x="690" y="900" />
            </Array>
          </mxGeometry>
        </mxCell>
        <mxCell id="f9FGhz5ylGD2EKOBcmWQ-12" value="[свободных номеров в этом отеле на выбранные даты нет]" style="text;html=1;align=center;verticalAlign=middle;resizable=0;points=[];autosize=1;" vertex="1" parent="1">
          <mxGeometry x="675" y="1160" width="340" height="20" as="geometry" />
        </mxCell>
        <mxCell id="f9FGhz5ylGD2EKOBcmWQ-13" value="" style="endArrow=none;html=1;strokeWidth=4;" edge="1" parent="1">
          <mxGeometry width="50" height="50" relative="1" as="geometry">
            <mxPoint x="600" y="920" as="sourcePoint" />
            <mxPoint x="720" y="920" as="targetPoint" />
          </mxGeometry>
        </mxCell>
        <mxCell id="f9FGhz5ylGD2EKOBcmWQ-14" value="" style="endArrow=open;endFill=1;endSize=12;html=1;" edge="1" parent="1">
          <mxGeometry width="160" relative="1" as="geometry">
            <mxPoint x="659.5" y="880" as="sourcePoint" />
            <mxPoint x="660" y="920" as="targetPoint" />
          </mxGeometry>
        </mxCell>
        <mxCell id="f9FGhz5ylGD2EKOBcmWQ-16" value="[свободные номера в этом отеле на выбранные даты есть]" style="text;html=1;align=center;verticalAlign=middle;resizable=0;points=[];autosize=1;" vertex="1" parent="1">
          <mxGeometry x="300" y="1160" width="340" height="20" as="geometry" />
        </mxCell>
        <mxCell id="f9FGhz5ylGD2EKOBcmWQ-17" value="" style="endArrow=open;endFill=1;endSize=12;html=1;exitX=0;exitY=0.5;exitDx=0;exitDy=0;" edge="1" parent="1">
          <mxGeometry width="160" relative="1" as="geometry">
            <mxPoint x="640" y="1185" as="sourcePoint" />
            <mxPoint x="308" y="1220" as="targetPoint" />
            <Array as="points">
              <mxPoint x="308" y="1185" />
            </Array>
          </mxGeometry>
        </mxCell>
        <mxCell id="f9FGhz5ylGD2EKOBcmWQ-18" value="Выбор категории номера" style="shape=ext;rounded=1;html=1;whiteSpace=wrap;" vertex="1" parent="1">
          <mxGeometry x="600" y="1060" width="120" height="80" as="geometry" />
        </mxCell>
        <mxCell id="f9FGhz5ylGD2EKOBcmWQ-21" value="" style="endArrow=open;endFill=1;endSize=12;html=1;" edge="1" parent="1">
          <mxGeometry width="160" relative="1" as="geometry">
            <mxPoint x="304.8799999999999" y="1415" as="sourcePoint" />
            <mxPoint x="305.1299999999999" y="1450" as="targetPoint" />
          </mxGeometry>
        </mxCell>
        <mxCell id="f9FGhz5ylGD2EKOBcmWQ-22" value="" style="endArrow=open;endFill=1;endSize=12;html=1;" edge="1" parent="1">
          <mxGeometry width="160" relative="1" as="geometry">
            <mxPoint x="660" y="1030" as="sourcePoint" />
            <mxPoint x="660.1" y="1060" as="targetPoint" />
          </mxGeometry>
        </mxCell>
      </root>
    </mxGraphModel>
  </diagram>
</mxfile>
